HIERARCHY
ROOT SpineBase
{
  OFFSET 0.000000 0.000000 0.000000
  CHANNELS 6 Xposition Yposition Zposition Zrotation Xrotation Yrotation
  JOINT SpineMid
  {
    OFFSET 0.000000 34.436193 0.000000
    CHANNELS 3 Zrotation Xrotation Yrotation
    JOINT SpineShoulder
    {
      OFFSET -0.149866 25.622513 -0.805711
      CHANNELS 3 Zrotation Xrotation Yrotation
      JOINT Neck
      {
        OFFSET -0.119689 8.494858 -0.581817
        CHANNELS 3 Zrotation Xrotation Yrotation
        JOINT Head
        {
          OFFSET -0.044106 11.785365 1.696576
          CHANNELS 3 Zrotation Xrotation Yrotation
          End Site
          {
            OFFSET 0 0 0
          }
        }
      }
      JOINT ShoulderLeft
      {
        OFFSET -15.763212 -6.372951 -8.020681
        CHANNELS 3 Zrotation Xrotation Yrotation
        JOINT ElbowLeft
        {
          OFFSET -4.795125 -28.919825 1.713383
          CHANNELS 3 Zrotation Xrotation Yrotation
          JOINT WristLeft
          {
            OFFSET -2.850392 -23.217938 4.302420
            CHANNELS 3 Zrotation Xrotation Yrotation
            JOINT HandLeft
            {
              OFFSET 1.502587 -1.863286 -0.206850
              CHANNELS 3 Zrotation Xrotation Yrotation
              JOINT HandTipLeft
              {
                OFFSET -0.325095 -6.556950 0.013663
                CHANNELS 3 Zrotation Xrotation Yrotation
                End Site
                {
                  OFFSET 0 0 0
                }
              }
              JOINT ThumbLeft
              {
                OFFSET -3.649305 -0.601648 -2.763630
                CHANNELS 3 Zrotation Xrotation Yrotation
                End Site
                {
                  OFFSET 0 0 0
                }
              }
            }
          }
        }
      }
      JOINT ShoulderRight
      {
        OFFSET 15.614244 -5.670511 -3.302484
        CHANNELS 3 Zrotation Xrotation Yrotation
        JOINT ElbowRight
        {
          OFFSET 4.517380 -28.603342 5.388832
          CHANNELS 3 Zrotation Xrotation Yrotation
          JOINT WristRight
          {
            OFFSET 0.230499 -22.159133 8.120148
            CHANNELS 3 Zrotation Xrotation Yrotation
            JOINT HandRight
            {
              OFFSET 1.659171 -6.559855 -0.409471
              CHANNELS 3 Zrotation Xrotation Yrotation
              JOINT HandTipRight
              {
                OFFSET 0.499421 -0.920132 0.377763
                CHANNELS 3 Zrotation Xrotation Yrotation
                End Site
                {
                  OFFSET 0 0 0
                }
              }
              JOINT ThumbRight
              {
                OFFSET 0.031293 -0.320361 -1.182278
                CHANNELS 3 Zrotation Xrotation Yrotation
                End Site
                {
                  OFFSET 0 0 0
                }
              }
            }
          }
        }
      }
    }
  }
  JOINT HipLeft
  {
    OFFSET -7.592810 1.458739 -3.873029
    CHANNELS 3 Zrotation Xrotation Yrotation
    JOINT KneeLeft
    {
      OFFSET -2.381055 -29.903592 -2.393649
      CHANNELS 3 Zrotation Xrotation Yrotation
      JOINT AnkleLeft
      {
        OFFSET 0.587569 -34.626130 -2.464876
        CHANNELS 3 Zrotation Xrotation Yrotation
        JOINT FootLeft
        {
          OFFSET 0.866996 -2.662184 -12.257123
          CHANNELS 3 Zrotation Xrotation Yrotation
          End Site
          {
            OFFSET 0 0 0
          }
        }
      }
    }
  }
  JOINT HipRight
  {
    OFFSET 6.100589 1.341976 -2.470053
    CHANNELS 3 Zrotation Xrotation Yrotation
    JOINT KneeRight
    {
      OFFSET 3.433096 -33.729103 -1.360576
      CHANNELS 3 Zrotation Xrotation Yrotation
      JOINT AnkleRight
      {
        OFFSET 0.370412 -34.406751 -2.733668
        CHANNELS 3 Zrotation Xrotation Yrotation
        JOINT FootRight
        {
          OFFSET -0.684942 -4.535931 -5.156099
          CHANNELS 3 Zrotation Xrotation Yrotation
          End Site
          {
            OFFSET 0 0 0
          }
        }
      }
    }
  }
}
MOTION
Frames: 12
Frame Time: 0.033333
64.335345 71.327224 270.702780 -0.103810 0.063276 -4.966942 0.108898 -0.054050 4.967051 -0.000000 0.000000 0.000000 -1.938265 0.523427 0.289692 0.000000 0.000000 0.000000 0.243395 -1.773241 0.312050 2.066696 1.575280 0.078244 -19.519142 8.730107 10.884764 18.456968 -11.982485 -7.835337 0.000000 0.000000 0.000000 0.000000 0.000000 0.000000 2.277679 -0.646058 0.338554 -1.218348 3.275597 0.062991 -3.707149 4.297432 1.521185 9.564740 -6.615454 2.148323 0.000000 0.000000 0.000000 0.000000 0.000000 0.000000 0.108898 -0.054050 4.967051 -0.000000 0.000000 0.000000 -0.248613 0.087897 1.170124 0.000000 0.000000 0.000000 0.108898 -0.054050 4.967051 -0.355380 0.977725 0.041767 4.324953 23.738751 -7.347615 0.000000 0.000000 0.000000
64.337475 71.318868 270.746016 -0.080565 0.032204 -4.943508 0.083040 -0.025141 4.943549 -0.000000 0.000000 0.000000 -2.081784 0.548806 0.311549 0.000000 0.000000 0.000000 0.560646 -1.656573 0.315998 1.789442 2.174736 -0.008859 -21.005328 7.133551 10.183514 22.407008 -11.822222 -6.849249 0.000000 0.000000 0.000000 0.000000 0.000000 0.000000 2.184318 -0.671171 0.317062 -1.107964 3.303948 0.089992 -2.427840 -0.018783 0.267447 8.840704 -3.426673 2.259829 0.000000 0.000000 0.000000 0.000000 0.000000 0.000000 0.083040 -0.025141 4.943549 -0.000000 0.000000 0.000000 -0.270813 0.086007 1.271615 0.000000 0.000000 0.000000 0.083040 -0.025141 4.943549 -0.217460 1.097555 0.031154 2.927128 17.648996 -5.371046 0.000000 0.000000 0.000000
64.339435 71.312101 270.788264 -0.066452 0.006253 -4.952134 0.066744 -0.000493 4.952138 -0.000000 0.000000 0.000000 -2.062562 0.554553 0.308814 0.000000 0.000000 0.000000 0.920907 -1.404400 0.298901 1.300810 2.716328 -0.108131 -19.375514 6.286581 9.583431 19.674708 -11.214780 -6.957360 0.000000 0.000000 0.000000 0.000000 0.000000 0.000000 2.312741 -0.748681 0.331182 -1.262676 3.453599 0.069967 -2.064615 1.049077 0.561151 6.469516 0.787635 3.856940 0.000000 0.000000 0.000000 0.000000 0.000000 0.000000 0.066744 -0.000493 4.952138 -0.000000 0.000000 0.000000 -0.296619 0.080653 1.388763 0.000000 0.000000 0.000000 0.066744 -0.000493 4.952138 -0.186533 1.180255 0.029425 1.950454 12.385352 -3.762646 0.000000 0.000000 0.000000
64.337883 71.305473 270.820193 -0.058757 -0.007707 -5.059686 0.057848 0.012859 5.059675 -0.000000 0.000000 0.000000 -2.059524 0.596192 0.309249 0.000000 0.000000 0.000000 1.307549 -1.037602 0.261712 0.461756 2.987535 -0.214181 -10.951733 8.868835 10.769578 9.440781 -12.545187 -9.068570 0.000000 0.000000 0.000000 0.000000 0.000000 0.000000 2.495839 -0.870600 0.350048 -1.517430 3.718967 0.032534 -4.421081 9.348841 3.100247 8.511981 -7.856941 2.721428 0.000000 0.000000 0.000000 0.000000 0.000000 0.000000 0.057848 0.012859 5.059675 -0.000000 0.000000 0.000000 -0.325957 0.077345 1.522761 0.000000 0.000000 0.000000 -0.012842 -0.811501 4.981977 -0.070599 2.084730 0.111972 1.404095 9.243374 -2.773866 0.000000 0.000000 0.000000
64.334693 71.295258 270.841578 -0.050527 -0.010660 -5.177431 0.049359 0.015176 5.177420 -0.000000 0.000000 0.000000 -1.932478 0.617029 0.290727 0.000000 0.000000 0.000000 1.682462 -0.593817 0.207306 -0.258764 3.367563 -0.318573 -2.706484 9.649720 10.269313 0.785909 -11.804479 -9.928359 0.000000 0.000000 0.000000 0.000000 0.000000 0.000000 2.661896 -1.000406 0.364891 -1.794573 4.013534 -0.012419 -5.398374 13.156575 4.441172 9.225946 -11.969531 2.270404 0.000000 0.000000 0.000000 0.000000 0.000000 0.000000 0.049359 0.015176 5.177420 -0.000000 0.000000 0.000000 -0.359764 0.080507 1.679055 0.000000 0.000000 0.000000 0.049359 0.015176 5.177420 -0.252627 1.244678 0.036186 1.255460 9.299922 -2.571141 0.000000 0.000000 0.000000
64.327079 71.283192 270.848575 -0.048170 -0.000725 -5.318128 0.047895 0.005187 5.318126 -0.000000 0.000000 0.000000 -1.793201 0.569118 0.269023 0.000000 0.000000 0.000000 1.990624 -0.015946 0.121217 -0.680818 3.279586 -0.318793 -4.088795 7.931016 9.670889 2.579888 -13.510907 -8.889069 0.000000 0.000000 0.000000 0.000000 0.000000 0.000000 2.733785 -1.204684 0.351598 -1.974771 4.366178 -0.025520 -6.060277 15.567119 5.370945 9.705517 -14.697939 1.993773 0.000000 0.000000 0.000000 0.000000 0.000000 0.000000 0.047895 0.005187 5.318126 -0.000000 0.000000 0.000000 -0.405708 0.088933 1.892479 0.000000 0.000000 0.000000 0.047895 0.005187 5.318126 -0.385042 1.158777 0.046925 1.544155 12.459178 -3.117349 0.000000 0.000000 0.000000
64.318700 71.275040 270.848645 -0.050739 0.019109 -5.430105 0.052320 -0.014221 5.430120 -0.000000 0.000000 0.000000 -1.447745 0.548655 0.217269 0.000000 0.000000 0.000000 2.255414 0.536367 0.034270 -0.906679 4.004530 -0.407751 -5.046923 1.780012 5.807624 6.224393 -8.601127 -4.952787 0.000000 0.000000 0.000000 0.000000 0.000000 0.000000 3.023745 -1.438805 0.378062 -2.330076 4.698690 -0.057728 -6.273008 16.351974 5.709812 9.835777 -15.614897 1.892469 0.000000 0.000000 0.000000 0.000000 0.000000 0.000000 0.052320 -0.014221 5.430120 -0.000000 0.000000 0.000000 -0.431673 0.102554 2.015247 0.000000 0.000000 0.000000 0.052320 -0.014221 5.430120 -0.554139 0.984917 0.059357 2.400155 17.841138 -4.457208 0.000000 0.000000 0.000000
64.319722 71.267247 270.831000 -0.041386 0.060795 -5.524079 0.047046 -0.056528 5.524124 -0.000000 0.000000 0.000000 -0.987432 0.703567 0.150718 0.000000 0.000000 0.000000 2.438022 0.985303 -0.040038 -0.916382 4.775282 -0.483363 -3.326542 -3.198850 2.521694 5.503747 -3.474827 -2.026028 0.000000 0.000000 0.000000 0.000000 0.000000 0.000000 3.386393 -1.632774 0.425432 -2.730115 4.969692 -0.099491 -5.958274 15.394577 5.396787 9.658531 -14.673910 1.973035 0.000000 0.000000 0.000000 0.000000 0.000000 0.000000 0.047046 -0.056528 5.524124 -0.000000 0.000000 0.000000 -0.437610 0.123419 2.047677 0.000000 0.000000 0.000000 1.013111 -0.460609 5.440913 -1.664003 1.318475 0.170843 3.738478 23.967071 -6.325007 0.000000 0.000000 0.000000
64.330274 71.257559 270.791173 -0.019350 0.130545 -5.601667 0.032000 -0.128033 5.601725 -0.000000 0.000000 0.000000 -0.445142 0.991913 0.071559 0.000000 0.000000 0.000000 2.607225 1.484992 -0.126110 -0.628058 5.668206 -0.533293 0.032980 -9.997278 -1.787260 0.268194 2.276822 2.459870 0.000000 0.000000 0.000000 0.000000 0.000000 0.000000 3.756856 -1.821011 0.476253 -3.112297 5.219967 -0.134247 -5.178694 12.774990 4.499303 9.169773 -11.964745 2.236377 0.000000 0.000000 0.000000 0.000000 0.000000 0.000000 0.032000 -0.128033 5.601725 -0.000000 0.000000 0.000000 -0.427582 0.147668 2.007630 0.000000 0.000000 0.000000 1.264658 -0.471534 5.513076 -2.105520 1.180370 0.192994 5.367155 29.731880 -8.428323 0.000000 0.000000 0.000000
64.349938 71.257280 270.742583 0.009554 0.218036 -5.743200 0.012313 -0.217898 5.743206 -0.000000 0.000000 0.000000 0.125348 1.359828 -0.014418 0.000000 0.000000 0.000000 2.348878 1.099207 -0.065878 0.888096 9.051146 -0.870287 1.766692 -23.503627 -9.297728 -5.823811 13.735893 11.539853 0.000000 0.000000 0.000000 0.000000 0.000000 0.000000 4.165236 -1.988282 0.538479 -3.512851 5.437893 -0.172210 -4.093106 8.757450 3.192482 8.392703 -7.797427 2.681873 0.000000 0.000000 0.000000 0.000000 0.000000 0.000000 0.012313 -0.217898 5.743206 -0.000000 0.000000 0.000000 -0.398393 0.173770 1.880300 0.000000 0.000000 0.000000 1.441819 -0.566387 5.647268 -2.323444 1.161683 0.206513 5.720694 30.311047 -8.833033 0.000000 0.000000 0.000000
64.380703 71.235921 270.667181 0.033843 0.318253 -5.996210 -0.000412 -0.320047 5.996115 -0.000000 0.000000 0.000000 0.722761 1.870331 -0.108587 0.000000 0.000000 0.000000 2.892259 2.803219 -0.366341 0.120115 8.376630 -0.753715 -9.336850 -33.734041 -20.789851 -1.945005 24.010807 19.179693 0.000000 0.000000 0.000000 0.000000 0.000000 0.000000 4.848410 -2.211172 0.651612 -4.186389 5.688933 -0.245041 -2.881034 3.790709 1.698120 7.380010 -2.645577 3.310536 0.000000 0.000000 0.000000 0.000000 0.000000 0.000000 -0.000412 -0.320047 5.996115 -0.000000 0.000000 0.000000 -0.346036 0.199495 1.647084 0.000000 0.000000 0.000000 1.530149 -0.759501 5.890340 -2.304691 1.269507 0.214163 5.204554 28.086826 -8.193997 0.000000 0.000000 0.000000
64.403554 71.199419 270.579696 0.034450 0.409165 -6.378434 0.011220 -0.410460 6.378351 -0.000000 0.000000 0.000000 1.376023 2.444507 -0.217628 0.000000 0.000000 0.000000 3.795163 4.972456 -0.771113 -1.365493 5.816026 -0.465677 -20.020755 -29.425222 -21.431893 11.990215 22.222504 13.267374 0.000000 0.000000 0.000000 0.000000 0.000000 0.000000 5.785986 -2.561742 0.805990 -5.110366 6.083274 -0.331190 -1.710859 -1.636136 0.198875 6.217648 2.913440 4.099214 0.000000 0.000000 0.000000 0.000000 0.000000 0.000000 0.011220 -0.410460 6.378351 -0.000000 0.000000 0.000000 -0.282062 0.218676 1.359497 0.000000 0.000000 0.000000 1.494933 -0.877966 6.273690 -2.111022 1.302940 0.202442 5.338399 28.071313 -8.483076 0.000000 0.000000 0.000000
